<svg width="1193" height="186" viewBox="0 0 1193 186" fill="none" xmlns="http://www.w3.org/2000/svg">
<path d="M1099.78 183.01H93.3906C43.7906 183.01 3.58008 142.8 3.58008 93.1997V92.8096C3.58008 43.2096 43.7906 3 93.3906 3H1099.78C1149.38 3 1189.59 43.2096 1189.59 92.8096V93.1997C1189.59 142.8 1149.38 183.01 1099.78 183.01Z" fill="white" stroke="#EAB677" stroke-width="5.2944"/>
<g opacity="0.15">
<mask id="mask0_182_293" style="mask-type:luminance" maskUnits="userSpaceOnUse" x="3" y="3" width="1187" height="181">
<path d="M1099.78 183.01H93.3906C43.7906 183.01 3.58008 142.8 3.58008 93.1997V92.8096C3.58008 43.2096 43.7906 3 93.3906 3H1099.78C1149.38 3 1189.59 43.2096 1189.59 92.8096V93.1997C1189.59 142.8 1149.38 183.01 1099.78 183.01Z" fill="white"/>
</mask>
<g mask="url(#mask0_182_293)">
<path d="M-361.96 161.82C-254.3 161.82 -254.3 24.1904 -146.64 24.1904H-146.649C-38.9894 24.1904 -38.9891 161.82 68.6709 161.82" stroke="#EAB677" stroke-width="12.8316" stroke-miterlimit="10" stroke-linejoin="round"/>
<path d="M141.261 133.06C168.161 105.99 168.161 62.1002 141.261 35.0302C119.741 13.3702 84.8511 13.3702 63.3411 35.0302C46.1311 52.3502 46.1311 80.4399 63.3411 97.7699C77.1111 111.63 99.4412 111.63 113.211 97.7699C124.231 86.6799 124.231 68.71 113.211 57.62C104.401 48.75 90.1103 48.75 81.2903 57.62C74.2403 64.72 74.2403 76.2202 81.2903 83.3202" stroke="#EAB677" stroke-width="12.8316" stroke-miterlimit="10" stroke-linecap="round" stroke-linejoin="round"/>
<path d="M51.141 58.4902C47.171 82.3502 24.7407 98.4504 1.03065 94.4604C-17.9393 91.2704 -30.7392 73.2001 -27.5592 54.1201C-25.0192 38.8501 -10.6589 28.54 4.51112 31.1C16.6511 33.14 24.8409 44.7003 22.8109 56.9203C21.1909 66.6903 12.0004 73.2903 2.29042 71.6503" stroke="#EAB677" stroke-width="12.8316" stroke-miterlimit="10" stroke-linecap="round" stroke-linejoin="round"/>
<path d="M56.6901 104.96C54.7401 115.47 47.3401 123.6 37.9801 126.93C30.4401 120.44 26.44 110.17 28.4 99.6401C30.36 89.0901 37.7803 80.9604 47.1403 77.6504C54.6703 84.1604 58.6501 94.4304 56.6901 104.96Z" stroke="#EAB677" stroke-width="12.8316" stroke-miterlimit="10" stroke-linecap="round" stroke-linejoin="round"/>
<path d="M192.671 59.2104C188.951 73.5904 180.1 84.72 170.03 89.27C163.44 80.39 161.091 66.3202 164.811 51.9102C168.551 37.4702 177.421 26.3501 187.471 21.8301C194.061 30.7301 196.401 44.7904 192.671 59.2104Z" stroke="#EAB677" stroke-width="12.8316" stroke-miterlimit="10" stroke-linecap="round" stroke-linejoin="round"/>
<path d="M68.6807 161.82C176.341 161.82 176.341 24.1904 284.001 24.1904H283.99C391.65 24.1904 391.651 161.82 499.311 161.82" stroke="#EAB677" stroke-width="12.8316" stroke-miterlimit="10" stroke-linejoin="round"/>
<path d="M356.58 52.9609C383.48 80.0309 383.48 123.921 356.58 150.991C335.06 172.651 300.17 172.651 278.66 150.991C261.45 133.671 261.45 105.581 278.66 88.251C292.43 74.391 314.761 74.391 328.531 88.251C339.551 99.341 339.551 117.311 328.531 128.401C319.721 137.271 305.431 137.271 296.611 128.401C289.561 121.301 289.561 109.801 296.611 102.701" stroke="#EAB677" stroke-width="12.8316" stroke-miterlimit="10" stroke-linecap="round" stroke-linejoin="round"/>
<path d="M266.45 127.541C262.48 103.681 240.051 87.5809 216.341 91.5709C197.381 94.7609 184.571 112.831 187.751 131.911C190.291 147.181 204.65 157.491 219.82 154.931C231.96 152.891 240.15 141.331 238.12 129.111C236.49 119.341 227.311 112.741 217.591 114.381" stroke="#EAB677" stroke-width="12.8316" stroke-miterlimit="10" stroke-linecap="round" stroke-linejoin="round"/>
<path d="M272.01 81.0605C270.06 70.5505 262.66 62.4208 253.3 59.0908C245.76 65.5808 241.76 75.8509 243.72 86.3809C245.68 96.9309 253.101 105.061 262.461 108.371C269.991 101.861 273.96 91.5905 272.01 81.0605Z" stroke="#EAB677" stroke-width="12.8316" stroke-miterlimit="10" stroke-linecap="round" stroke-linejoin="round"/>
<path d="M407.98 126.82C404.26 112.44 395.411 101.31 385.341 96.7598C378.751 105.64 376.4 119.71 380.12 134.12C383.86 148.56 392.73 159.68 402.78 164.2C409.38 155.29 411.71 141.23 407.98 126.82Z" stroke="#EAB677" stroke-width="12.8316" stroke-miterlimit="10" stroke-linecap="round" stroke-linejoin="round"/>
<path d="M571.901 133.06C598.801 105.99 598.801 62.1002 571.901 35.0302C550.381 13.3702 515.491 13.3702 493.981 35.0302C476.771 52.3502 476.771 80.4399 493.981 97.7699C507.751 111.63 530.081 111.63 543.851 97.7699C554.871 86.6799 554.871 68.71 543.851 57.62C535.041 48.75 520.751 48.75 511.931 57.62C504.881 64.72 504.881 76.2202 511.931 83.3202" stroke="#EAB677" stroke-width="12.8316" stroke-miterlimit="10" stroke-linecap="round" stroke-linejoin="round"/>
<path d="M481.78 58.4902C477.81 82.3502 455.381 98.4504 431.671 94.4604C412.711 91.2704 399.9 73.2001 403.08 54.1201C405.62 38.8501 419.98 28.54 435.15 31.1C447.29 33.14 455.48 44.7003 453.45 56.9203C451.82 66.6903 442.641 73.2903 432.921 71.6503" stroke="#EAB677" stroke-width="12.8316" stroke-miterlimit="10" stroke-linecap="round" stroke-linejoin="round"/>
<path d="M487.33 104.96C485.38 115.47 477.98 123.6 468.62 126.93C461.08 120.44 457.08 110.17 459.04 99.6401C461 89.0901 468.42 80.9604 477.78 77.6504C485.31 84.1604 489.29 94.4304 487.33 104.96Z" stroke="#EAB677" stroke-width="12.8316" stroke-miterlimit="10" stroke-linecap="round" stroke-linejoin="round"/>
<path d="M623.31 59.2104C619.59 73.5904 610.741 84.72 600.671 89.27C594.081 80.39 591.73 66.3202 595.45 51.9102C599.19 37.4702 608.06 26.3501 618.11 21.8301C624.7 30.7301 627.04 44.7904 623.31 59.2104Z" stroke="#EAB677" stroke-width="12.8316" stroke-miterlimit="10" stroke-linecap="round" stroke-linejoin="round"/>
<path d="M499.32 161.82C606.98 161.82 606.981 24.1904 714.641 24.1904H714.631C822.291 24.1904 822.29 161.82 929.95 161.82" stroke="#EAB677" stroke-width="12.8316" stroke-miterlimit="10" stroke-linejoin="round"/>
<path d="M787.221 52.9609C814.121 80.0309 814.121 123.921 787.221 150.991C765.701 172.651 730.811 172.651 709.301 150.991C692.091 133.671 692.091 105.581 709.301 88.251C723.071 74.391 745.401 74.391 759.171 88.251C770.191 99.341 770.191 117.311 759.171 128.401C750.361 137.271 736.071 137.271 727.251 128.401C720.201 121.301 720.201 109.801 727.251 102.701" stroke="#EAB677" stroke-width="12.8316" stroke-miterlimit="10" stroke-linecap="round" stroke-linejoin="round"/>
<path d="M697.091 127.541C693.121 103.681 670.691 87.5809 646.981 91.5709C628.021 94.7609 615.211 112.831 618.391 131.911C620.931 147.181 635.291 157.491 650.461 154.931C662.601 152.891 670.791 141.331 668.761 129.111C667.141 119.341 657.95 112.741 648.24 114.381" stroke="#EAB677" stroke-width="12.8316" stroke-miterlimit="10" stroke-linecap="round" stroke-linejoin="round"/>
<path d="M702.65 81.0605C700.7 70.5505 693.3 62.4208 683.94 59.0908C676.4 65.5808 672.4 75.8509 674.36 86.3809C676.32 96.9309 683.73 105.061 693.1 108.371C700.63 101.861 704.6 91.5905 702.65 81.0605Z" stroke="#EAB677" stroke-width="12.8316" stroke-miterlimit="10" stroke-linecap="round" stroke-linejoin="round"/>
<path d="M838.62 126.82C834.9 112.44 826.05 101.31 815.99 96.7598C809.4 105.64 807.04 119.71 810.77 134.12C814.51 148.56 823.38 159.68 833.43 164.2C840.02 155.29 842.35 141.23 838.62 126.82Z" stroke="#EAB677" stroke-width="12.8316" stroke-miterlimit="10" stroke-linecap="round" stroke-linejoin="round"/>
<path d="M1002.54 133.06C1029.44 105.99 1029.44 62.1002 1002.54 35.0302C981.02 13.3702 946.13 13.3702 924.62 35.0302C907.41 52.3502 907.41 80.4399 924.62 97.7699C938.39 111.63 960.721 111.63 974.491 97.7699C985.511 86.6799 985.511 68.71 974.491 57.62C965.681 48.75 951.391 48.75 942.571 57.62C935.521 64.72 935.521 76.2202 942.571 83.3202" stroke="#EAB677" stroke-width="12.8316" stroke-miterlimit="10" stroke-linecap="round" stroke-linejoin="round"/>
<path d="M912.421 58.4902C908.451 82.3502 886.021 98.4504 862.311 94.4604C843.351 91.2704 830.541 73.2001 833.721 54.1201C836.261 38.8501 850.62 28.54 865.79 31.1C877.93 33.14 886.121 44.7003 884.091 56.9203C882.471 66.6903 873.28 73.2903 863.57 71.6503" stroke="#EAB677" stroke-width="12.8316" stroke-miterlimit="10" stroke-linecap="round" stroke-linejoin="round"/>
<path d="M917.97 104.96C916.02 115.47 908.62 123.6 899.26 126.93C891.72 120.44 887.72 110.17 889.68 99.6401C891.64 89.0901 899.051 80.9604 908.421 77.6504C915.951 84.1604 919.93 94.4304 917.97 104.96Z" stroke="#EAB677" stroke-width="12.8316" stroke-miterlimit="10" stroke-linecap="round" stroke-linejoin="round"/>
<path d="M1053.95 59.2104C1050.23 73.5904 1041.38 84.72 1031.32 89.27C1024.73 80.39 1022.37 66.3202 1026.1 51.9102C1029.84 37.4702 1038.71 26.3501 1048.76 21.8301C1055.34 30.7301 1057.68 44.7904 1053.95 59.2104Z" stroke="#EAB677" stroke-width="12.8316" stroke-miterlimit="10" stroke-linecap="round" stroke-linejoin="round"/>
<path d="M929.961 161.82C1037.62 161.82 1037.62 24.1904 1145.28 24.1904H1145.27C1252.93 24.1904 1252.93 161.82 1360.59 161.82" stroke="#EAB677" stroke-width="12.8316" stroke-miterlimit="10" stroke-linejoin="round"/>
<path d="M1217.86 52.9609C1244.76 80.0309 1244.76 123.921 1217.86 150.991C1196.34 172.651 1161.45 172.651 1139.94 150.991C1122.73 133.671 1122.73 105.581 1139.94 88.251C1153.71 74.391 1176.04 74.391 1189.81 88.251C1200.83 99.341 1200.83 117.311 1189.81 128.401C1181 137.271 1166.71 137.271 1157.89 128.401C1150.84 121.301 1150.84 109.801 1157.89 102.701" stroke="#EAB677" stroke-width="12.8316" stroke-miterlimit="10" stroke-linecap="round" stroke-linejoin="round"/>
<path d="M1127.73 127.541C1123.76 103.681 1101.33 87.5809 1077.62 91.5709C1058.66 94.7609 1045.85 112.831 1049.03 131.911C1051.57 147.181 1065.93 157.491 1081.1 154.931C1093.24 152.891 1101.43 141.331 1099.4 129.111C1097.77 119.341 1088.59 112.741 1078.88 114.381" stroke="#EAB677" stroke-width="12.8316" stroke-miterlimit="10" stroke-linecap="round" stroke-linejoin="round"/>
<path d="M1133.29 81.0605C1131.34 70.5505 1123.94 62.4208 1114.58 59.0908C1107.04 65.5808 1103.04 75.8509 1105 86.3809C1106.96 96.9309 1114.38 105.061 1123.74 108.371C1131.27 101.861 1135.24 91.5905 1133.29 81.0605Z" stroke="#EAB677" stroke-width="12.8316" stroke-miterlimit="10" stroke-linecap="round" stroke-linejoin="round"/>
</g>
</g>
<path d="M94.5505 76.2301C79.6105 74.6601 67.0099 78.9698 56.9099 89.6198C55.1199 91.5098 55.1199 94.51 56.9099 96.4C67.0099 107.05 79.6105 111.36 94.5505 109.79C91.2105 122.63 93.6806 131.85 99.4206 139.04C100.341 140.19 102.11 140 102.79 138.7C116.64 111.91 152.241 99.3799 168.251 94.9699C170.231 94.4199 170.231 91.61 168.251 91.07C152.241 86.65 116.64 74.12 102.79 47.34C102.12 46.03 100.341 45.8501 99.4206 47.0001C93.6706 54.1701 91.2005 63.3901 94.5505 76.2301Z" fill="#EAB677"/>
<path d="M1098.63 76.2301C1113.57 74.6601 1126.17 78.9698 1136.27 89.6198C1138.06 91.5098 1138.06 94.51 1136.27 96.4C1126.17 107.05 1113.57 111.36 1098.63 109.79C1101.97 122.63 1099.5 131.85 1093.76 139.04C1092.84 140.19 1091.07 140 1090.39 138.7C1076.54 111.91 1040.94 99.3799 1024.93 94.9699C1022.95 94.4199 1022.95 91.61 1024.93 91.07C1040.94 86.65 1076.54 74.12 1090.39 47.34C1091.06 46.03 1092.84 45.8501 1093.76 47.0001C1099.5 54.1701 1101.97 63.3901 1098.63 76.2301Z" fill="#EAB677"/>
</svg>
