<svg width="1194" height="188" viewBox="0 0 1194 188" fill="none" xmlns="http://www.w3.org/2000/svg">
<path d="M1100.2 184.01H93.8101C44.2101 184.01 4 143.8 4 94.1997V93.8096C4 44.2096 44.2101 4 93.8101 4H1100.2C1149.8 4 1190.01 44.2096 1190.01 93.8096V94.1997C1190.01 143.8 1149.8 184.01 1100.2 184.01Z" fill="#30574D" stroke="#B0C4BF" stroke-width="6.358"/>
<g opacity="0.05">
<mask id="mask0_182_404" style="mask-type:luminance" maskUnits="userSpaceOnUse" x="4" y="4" width="1187" height="181">
<path d="M1100.2 184.01H93.8101C44.2101 184.01 4 143.8 4 94.1997V93.8096C4 44.2096 44.2101 4 93.8101 4H1100.2C1149.8 4 1190.01 44.2096 1190.01 93.8096V94.1997C1190.01 143.8 1149.8 184.01 1100.2 184.01Z" fill="white"/>
</mask>
<g mask="url(#mask0_182_404)">
<path d="M-361.539 162.82C-253.879 162.82 -253.879 25.1904 -146.219 25.1904H-146.229C-38.569 25.1904 -38.5692 162.82 69.0908 162.82" stroke="white" stroke-width="12.8316" stroke-miterlimit="10" stroke-linejoin="round"/>
<path d="M141.681 134.06C168.581 106.99 168.581 63.1002 141.681 36.0302C120.161 14.3702 85.271 14.3702 63.761 36.0302C46.551 53.3502 46.551 81.4399 63.761 98.7699C77.531 112.63 99.8606 112.63 113.631 98.7699C124.651 87.6799 124.651 69.71 113.631 58.62C104.821 49.75 90.5307 49.75 81.7107 58.62C74.6607 65.72 74.6607 77.2202 81.7107 84.3202" stroke="white" stroke-width="12.8316" stroke-miterlimit="10" stroke-linecap="round" stroke-linejoin="round"/>
<path d="M51.5606 59.4902C47.5906 83.3502 25.1608 99.4504 1.45076 95.4604C-17.5092 92.2704 -30.3196 74.2001 -27.1396 55.1201C-24.5996 39.8501 -10.2393 29.54 4.93074 32.1C17.0707 34.14 25.2605 45.7003 23.2305 57.9203C21.6005 67.6903 12.4205 74.2903 2.71053 72.6503" stroke="white" stroke-width="12.8316" stroke-miterlimit="10" stroke-linecap="round" stroke-linejoin="round"/>
<path d="M57.111 105.96C55.161 116.47 47.761 124.6 38.401 127.93C30.861 121.44 26.8609 111.17 28.8209 100.64C30.7809 90.0901 38.2012 81.9604 47.5612 78.6504C55.0912 85.1604 59.071 95.4304 57.111 105.96Z" stroke="white" stroke-width="12.8316" stroke-miterlimit="10" stroke-linecap="round" stroke-linejoin="round"/>
<path d="M193.09 60.2104C189.37 74.5904 180.521 85.72 170.451 90.27C163.861 81.39 161.51 67.3202 165.23 52.9102C168.97 38.4702 177.841 27.3501 187.891 22.8301C194.481 31.7301 196.82 45.7904 193.09 60.2104Z" stroke="white" stroke-width="12.8316" stroke-miterlimit="10" stroke-linecap="round" stroke-linejoin="round"/>
<path d="M69.1006 162.82C176.761 162.82 176.76 25.1904 284.42 25.1904H284.411C392.071 25.1904 392.07 162.82 499.73 162.82" stroke="white" stroke-width="12.8316" stroke-miterlimit="10" stroke-linejoin="round"/>
<path d="M357 53.9609C383.9 81.0309 383.9 124.921 357 151.991C335.48 173.651 300.589 173.651 279.079 151.991C261.869 134.671 261.869 106.581 279.079 89.251C292.849 75.391 315.179 75.391 328.949 89.251C339.969 100.341 339.969 118.311 328.949 129.401C320.139 138.271 305.849 138.271 297.029 129.401C289.979 122.301 289.979 110.801 297.029 103.701" stroke="white" stroke-width="12.8316" stroke-miterlimit="10" stroke-linecap="round" stroke-linejoin="round"/>
<path d="M266.87 128.541C262.9 104.681 240.47 88.5809 216.76 92.5709C197.8 95.7609 184.99 113.831 188.17 132.911C190.71 148.181 205.07 158.491 220.24 155.931C232.38 153.891 240.57 142.331 238.54 130.111C236.92 120.341 227.73 113.741 218.02 115.381" stroke="white" stroke-width="12.8316" stroke-miterlimit="10" stroke-linecap="round" stroke-linejoin="round"/>
<path d="M272.43 82.0605C270.48 71.5505 263.08 63.4208 253.72 60.0908C246.18 66.5808 242.18 76.8509 244.14 87.3809C246.1 97.9309 253.52 106.061 262.88 109.371C270.41 102.861 274.38 92.5905 272.43 82.0605Z" stroke="white" stroke-width="12.8316" stroke-miterlimit="10" stroke-linecap="round" stroke-linejoin="round"/>
<path d="M408.4 127.82C404.68 113.44 395.83 102.31 385.76 97.7598C379.17 106.64 376.82 120.71 380.54 135.12C384.28 149.56 393.15 160.68 403.2 165.2C409.8 156.29 412.13 142.23 408.4 127.82Z" stroke="white" stroke-width="12.8316" stroke-miterlimit="10" stroke-linecap="round" stroke-linejoin="round"/>
<path d="M572.321 134.06C599.221 106.99 599.221 63.1002 572.321 36.0302C550.801 14.3702 515.911 14.3702 494.401 36.0302C477.191 53.3502 477.191 81.4399 494.401 98.7699C508.171 112.63 530.501 112.63 544.271 98.7699C555.291 87.6799 555.291 69.71 544.271 58.62C535.461 49.75 521.171 49.75 512.351 58.62C505.301 65.72 505.301 77.2202 512.351 84.3202" stroke="white" stroke-width="12.8316" stroke-miterlimit="10" stroke-linecap="round" stroke-linejoin="round"/>
<path d="M482.2 59.4902C478.23 83.3502 455.801 99.4504 432.091 95.4604C413.131 92.2704 400.321 74.2001 403.501 55.1201C406.041 39.8501 420.4 29.54 435.57 32.1C447.71 34.14 455.9 45.7003 453.87 57.9203C452.24 67.6903 443.061 74.2903 433.341 72.6503" stroke="white" stroke-width="12.8316" stroke-miterlimit="10" stroke-linecap="round" stroke-linejoin="round"/>
<path d="M487.751 105.96C485.801 116.47 478.4 124.6 469.04 127.93C461.5 121.44 457.501 111.17 459.461 100.64C461.421 90.0901 468.84 81.9604 478.2 78.6504C485.73 85.1604 489.711 95.4304 487.751 105.96Z" stroke="white" stroke-width="12.8316" stroke-miterlimit="10" stroke-linecap="round" stroke-linejoin="round"/>
<path d="M623.73 60.2104C620.01 74.5904 611.161 85.72 601.091 90.27C594.501 81.39 592.15 67.3202 595.87 52.9102C599.61 38.4702 608.48 27.3501 618.53 22.8301C625.12 31.7301 627.46 45.7904 623.73 60.2104Z" stroke="white" stroke-width="12.8316" stroke-miterlimit="10" stroke-linecap="round" stroke-linejoin="round"/>
<path d="M499.74 162.82C607.4 162.82 607.401 25.1904 715.061 25.1904H715.051C822.711 25.1904 822.71 162.82 930.37 162.82" stroke="white" stroke-width="12.8316" stroke-miterlimit="10" stroke-linejoin="round"/>
<path d="M787.641 53.9609C814.541 81.0309 814.541 124.921 787.641 151.991C766.121 173.651 731.231 173.651 709.721 151.991C692.511 134.671 692.511 106.581 709.721 89.251C723.491 75.391 745.821 75.391 759.591 89.251C770.611 100.341 770.611 118.311 759.591 129.401C750.781 138.271 736.491 138.271 727.671 129.401C720.621 122.301 720.621 110.801 727.671 103.701" stroke="white" stroke-width="12.8316" stroke-miterlimit="10" stroke-linecap="round" stroke-linejoin="round"/>
<path d="M697.511 128.541C693.541 104.681 671.11 88.5809 647.4 92.5709C628.44 95.7609 615.631 113.831 618.811 132.911C621.351 148.181 635.711 158.491 650.881 155.931C663.021 153.891 671.211 142.331 669.181 130.111C667.561 120.341 658.37 113.741 648.66 115.381" stroke="white" stroke-width="12.8316" stroke-miterlimit="10" stroke-linecap="round" stroke-linejoin="round"/>
<path d="M703.07 82.0605C701.12 71.5505 693.72 63.4208 684.36 60.0908C676.82 66.5808 672.82 76.8509 674.78 87.3809C676.74 97.9309 684.15 106.061 693.52 109.371C701.05 102.861 705.02 92.5905 703.07 82.0605Z" stroke="white" stroke-width="12.8316" stroke-miterlimit="10" stroke-linecap="round" stroke-linejoin="round"/>
<path d="M839.04 127.82C835.32 113.44 826.47 102.31 816.41 97.7598C809.82 106.64 807.46 120.71 811.19 135.12C814.93 149.56 823.8 160.68 833.85 165.2C840.44 156.29 842.77 142.23 839.04 127.82Z" stroke="white" stroke-width="12.8316" stroke-miterlimit="10" stroke-linecap="round" stroke-linejoin="round"/>
<path d="M1002.96 134.06C1029.86 106.99 1029.86 63.1002 1002.96 36.0302C981.441 14.3702 946.55 14.3702 925.04 36.0302C907.83 53.3502 907.83 81.4399 925.04 98.7699C938.81 112.63 961.14 112.63 974.91 98.7699C985.93 87.6799 985.93 69.71 974.91 58.62C966.1 49.75 951.811 49.75 942.991 58.62C935.941 65.72 935.941 77.2202 942.991 84.3202" stroke="white" stroke-width="12.8316" stroke-miterlimit="10" stroke-linecap="round" stroke-linejoin="round"/>
<path d="M912.841 59.4902C908.871 83.3502 886.441 99.4504 862.731 95.4604C843.771 92.2704 830.961 74.2001 834.141 55.1201C836.681 39.8501 851.041 29.54 866.211 32.1C878.351 34.14 886.541 45.7003 884.511 57.9203C882.891 67.6903 873.7 74.2903 863.99 72.6503" stroke="white" stroke-width="12.8316" stroke-miterlimit="10" stroke-linecap="round" stroke-linejoin="round"/>
<path d="M918.39 105.96C916.44 116.47 909.04 124.6 899.68 127.93C892.14 121.44 888.14 111.17 890.1 100.64C892.06 90.0901 899.47 81.9604 908.84 78.6504C916.37 85.1604 920.35 95.4304 918.39 105.96Z" stroke="white" stroke-width="12.8316" stroke-miterlimit="10" stroke-linecap="round" stroke-linejoin="round"/>
<path d="M1054.37 60.2104C1050.65 74.5904 1041.8 85.72 1031.74 90.27C1025.15 81.39 1022.79 67.3202 1026.52 52.9102C1030.26 38.4702 1039.13 27.3501 1049.18 22.8301C1055.76 31.7301 1058.1 45.7904 1054.37 60.2104Z" stroke="white" stroke-width="12.8316" stroke-miterlimit="10" stroke-linecap="round" stroke-linejoin="round"/>
<path d="M930.381 162.82C1038.04 162.82 1038.04 25.1904 1145.7 25.1904H1145.69C1253.35 25.1904 1253.35 162.82 1361.01 162.82" stroke="white" stroke-width="12.8316" stroke-miterlimit="10" stroke-linejoin="round"/>
<path d="M1218.28 53.9609C1245.18 81.0309 1245.18 124.921 1218.28 151.991C1196.76 173.651 1161.87 173.651 1140.36 151.991C1123.15 134.671 1123.15 106.581 1140.36 89.251C1154.13 75.391 1176.46 75.391 1190.23 89.251C1201.25 100.341 1201.25 118.311 1190.23 129.401C1181.42 138.271 1167.13 138.271 1158.31 129.401C1151.26 122.301 1151.26 110.801 1158.31 103.701" stroke="white" stroke-width="12.8316" stroke-miterlimit="10" stroke-linecap="round" stroke-linejoin="round"/>
<path d="M1128.15 128.541C1124.18 104.681 1101.75 88.5809 1078.04 92.5709C1059.08 95.7609 1046.27 113.831 1049.45 132.911C1051.99 148.181 1066.35 158.491 1081.52 155.931C1093.66 153.891 1101.85 142.331 1099.82 130.111C1098.19 120.341 1089.01 113.741 1079.3 115.381" stroke="white" stroke-width="12.8316" stroke-miterlimit="10" stroke-linecap="round" stroke-linejoin="round"/>
<path d="M1133.71 82.0605C1131.76 71.5505 1124.36 63.4208 1115 60.0908C1107.46 66.5808 1103.46 76.8509 1105.42 87.3809C1107.38 97.9309 1114.8 106.061 1124.16 109.371C1131.69 102.861 1135.66 92.5905 1133.71 82.0605Z" stroke="white" stroke-width="12.8316" stroke-miterlimit="10" stroke-linecap="round" stroke-linejoin="round"/>
</g>
</g>
<path d="M94.9706 77.2301C80.0306 75.6601 67.4305 79.9698 57.3305 90.6198C55.5305 92.5098 55.5305 95.51 57.3305 97.4C67.4305 108.05 80.0306 112.36 94.9706 110.79C91.6306 123.63 94.1005 132.85 99.8305 140.04C100.75 141.19 102.521 141 103.201 139.7C117.051 112.91 152.651 100.38 168.661 95.9699C170.641 95.4199 170.641 92.61 168.661 92.07C152.651 87.65 117.061 75.12 103.201 48.34C102.531 47.03 100.75 46.8501 99.8305 48.0001C94.0905 55.1701 91.6206 64.3901 94.9706 77.2301Z" fill="#618D82"/>
<path d="M1099.05 77.2301C1113.99 75.6601 1126.59 79.9698 1136.69 90.6198C1138.48 92.5098 1138.48 95.51 1136.69 97.4C1126.59 108.05 1113.99 112.36 1099.05 110.79C1102.39 123.63 1099.92 132.85 1094.18 140.04C1093.26 141.19 1091.49 141 1090.81 139.7C1076.96 112.91 1041.36 100.38 1025.35 95.9699C1023.37 95.4199 1023.37 92.61 1025.35 92.07C1041.36 87.65 1076.96 75.12 1090.81 48.34C1091.48 47.03 1093.26 46.8501 1094.18 48.0001C1099.92 55.1701 1102.39 64.3901 1099.05 77.2301Z" fill="#618D82"/>
</svg>
