<svg width="1263" height="2238" viewBox="0 0 1263 2238" fill="none" xmlns="http://www.w3.org/2000/svg">
<path d="M1155.38 2234.62H107.51C50.0803 2234.62 3.53027 2188.07 3.53027 2130.64V107.04C3.53027 49.6096 50.0803 3.05957 107.51 3.05957H1155.38C1212.81 3.05957 1259.36 49.6096 1259.36 107.04V2130.63C1259.36 2188.06 1212.81 2234.62 1155.38 2234.62Z" fill="#618D82"/>
<path d="M1155.36 2234.62H107.53C50.0903 2234.62 3.53027 2188.06 3.53027 2130.62V107.06C3.53027 49.6196 50.0903 3.05957 107.53 3.05957H1155.36C1212.8 3.05957 1259.36 49.6196 1259.36 107.06V2130.61C1259.36 2188.05 1212.8 2234.62 1155.36 2234.62Z" stroke="#EAB677" stroke-width="6" stroke-miterlimit="10"/>
</svg>
