<svg width="1192" height="184" viewBox="0 0 1192 184" fill="none" xmlns="http://www.w3.org/2000/svg">
<path d="M1100.24 180.36H92.48C43.62 180.36 4 140.75 4 91.8796V91.8699C4 43.0099 43.61 3.38965 92.48 3.38965H1100.24C1149.1 3.38965 1188.72 42.9999 1188.72 91.8699V91.8796C1188.72 140.74 1149.11 180.36 1100.24 180.36Z" fill="#30574D" stroke="#B0C4BF" stroke-width="6.358"/>
<g opacity="0.05">
<mask id="mask0_151_6247" style="mask-type:luminance" maskUnits="userSpaceOnUse" x="5" y="0" width="1185" height="178">
<path d="M1101.52 177.32H93.7598C44.8998 177.32 5.27979 137.71 5.27979 88.8401V88.8301C5.27979 39.9701 44.8898 0.350098 93.7598 0.350098H1101.52C1150.38 0.350098 1190 39.9601 1190 88.8301V88.8401C1190 137.71 1150.39 177.32 1101.52 177.32Z" fill="white"/>
</mask>
<g mask="url(#mask0_151_6247)">
<path d="M-361.61 160.08C-254.06 160.08 -254.06 24.7803 -146.52 24.7803H-146.53C-38.9803 24.7803 -38.9804 160.08 68.5596 160.08" stroke="white" stroke-width="12.716" stroke-miterlimit="10" stroke-linejoin="round"/>
<path d="M141.07 131.8C167.94 105.19 167.94 62.0399 141.07 35.4299C119.58 14.1399 84.7296 14.1399 63.2296 35.4299C46.0296 52.4599 46.0296 80.0801 63.2296 97.1101C76.9896 110.74 99.2896 110.74 113.05 97.1101C124.06 86.2101 124.06 68.5399 113.05 57.6399C104.25 48.9199 89.9696 48.9199 81.1696 57.6399C74.1296 64.6199 74.1296 75.9299 81.1696 82.8999" stroke="white" stroke-width="12.716" stroke-miterlimit="10" stroke-linecap="round" stroke-linejoin="round"/>
<path d="M51.0396 58.4797C47.0796 81.9397 24.6696 97.7698 0.989563 93.8398C-17.9504 90.6998 -30.7404 72.9396 -27.5704 54.1796C-25.0304 39.1696 -10.6904 29.0398 4.46957 31.5498C16.5896 33.5598 24.7796 44.9196 22.7496 56.9296C21.1296 66.5396 11.9496 73.0196 2.24957 71.4096" stroke="white" stroke-width="12.716" stroke-miterlimit="10" stroke-linecap="round" stroke-linejoin="round"/>
<path d="M56.5897 104.18C54.6397 114.51 47.2497 122.51 37.8997 125.78C30.3697 119.4 26.3797 109.3 28.3297 98.9497C30.2897 88.5797 37.6897 80.5898 47.0497 77.3398C54.5697 83.7198 58.5397 93.8197 56.5897 104.18Z" stroke="white" stroke-width="12.716" stroke-miterlimit="10" stroke-linecap="round" stroke-linejoin="round"/>
<path d="M192.419 59.1897C188.699 73.3297 179.859 84.2697 169.809 88.7397C163.229 80.0097 160.879 66.1798 164.599 52.0098C168.329 37.8098 177.199 26.8797 187.239 22.4297C193.809 31.1997 196.139 45.0197 192.419 59.1897Z" stroke="white" stroke-width="12.716" stroke-miterlimit="10" stroke-linecap="round" stroke-linejoin="round"/>
<path d="M68.5693 160.08C176.119 160.08 176.119 24.7803 283.659 24.7803H283.649C391.199 24.7803 391.199 160.08 498.739 160.08" stroke="white" stroke-width="12.716" stroke-miterlimit="10" stroke-linejoin="round"/>
<path d="M356.159 53.0498C383.029 79.6598 383.029 122.81 356.159 149.42C334.669 170.71 299.819 170.71 278.319 149.42C261.119 132.39 261.119 104.77 278.319 87.7397C292.079 74.1097 314.379 74.1097 328.139 87.7397C339.149 98.6397 339.149 116.31 328.139 127.21C319.339 135.93 305.059 135.93 296.259 127.21C289.219 120.23 289.219 108.92 296.259 101.95" stroke="white" stroke-width="12.716" stroke-miterlimit="10" stroke-linecap="round" stroke-linejoin="round"/>
<path d="M266.12 126.37C262.16 102.91 239.75 87.0799 216.07 91.0099C197.13 94.1499 184.34 111.91 187.51 130.67C190.05 145.68 204.39 155.81 219.55 153.3C231.67 151.29 239.86 139.93 237.83 127.92C236.21 118.31 227.03 111.83 217.33 113.44" stroke="white" stroke-width="12.716" stroke-miterlimit="10" stroke-linecap="round" stroke-linejoin="round"/>
<path d="M271.67 80.6697C269.72 70.3397 262.33 62.3398 252.98 59.0698C245.45 65.4498 241.46 75.5497 243.41 85.8997C245.37 96.2697 252.77 104.26 262.13 107.51C269.66 101.13 273.63 91.0297 271.67 80.6697Z" stroke="white" stroke-width="12.716" stroke-miterlimit="10" stroke-linecap="round" stroke-linejoin="round"/>
<path d="M407.499 125.66C403.779 111.52 394.939 100.58 384.889 96.1104C378.309 104.84 375.959 118.67 379.679 132.84C383.409 147.04 392.279 157.97 402.319 162.42C408.889 153.65 411.229 139.83 407.499 125.66Z" stroke="white" stroke-width="12.716" stroke-miterlimit="10" stroke-linecap="round" stroke-linejoin="round"/>
<path d="M571.25 131.8C598.12 105.19 598.12 62.0399 571.25 35.4299C549.76 14.1399 514.91 14.1399 493.41 35.4299C476.21 52.4599 476.21 80.0801 493.41 97.1101C507.17 110.74 529.47 110.74 543.23 97.1101C554.24 86.2101 554.24 68.5399 543.23 57.6399C534.43 48.9199 520.15 48.9199 511.35 57.6399C504.31 64.6199 504.31 75.9299 511.35 82.8999" stroke="white" stroke-width="12.716" stroke-miterlimit="10" stroke-linecap="round" stroke-linejoin="round"/>
<path d="M481.22 58.4797C477.26 81.9397 454.85 97.7698 431.17 93.8398C412.23 90.6998 399.44 72.9396 402.61 54.1796C405.15 39.1696 419.49 29.0398 434.65 31.5498C446.77 33.5598 454.96 44.9196 452.93 56.9296C451.31 66.5396 442.13 73.0196 432.43 71.4096" stroke="white" stroke-width="12.716" stroke-miterlimit="10" stroke-linecap="round" stroke-linejoin="round"/>
<path d="M486.76 104.18C484.81 114.51 477.42 122.51 468.07 125.78C460.54 119.4 456.55 109.3 458.5 98.9497C460.46 88.5797 467.86 80.5898 477.22 77.3398C484.75 83.7198 488.72 93.8197 486.76 104.18Z" stroke="white" stroke-width="12.716" stroke-miterlimit="10" stroke-linecap="round" stroke-linejoin="round"/>
<path d="M622.59 59.1897C618.87 73.3297 610.03 84.2697 599.98 88.7397C593.4 80.0097 591.05 66.1798 594.77 52.0098C598.5 37.8098 607.37 26.8797 617.41 22.4297C623.98 31.1997 626.32 45.0197 622.59 59.1897Z" stroke="white" stroke-width="12.716" stroke-miterlimit="10" stroke-linecap="round" stroke-linejoin="round"/>
<path d="M498.74 160.08C606.29 160.08 606.29 24.7803 713.83 24.7803H713.82C821.37 24.7803 821.37 160.08 928.91 160.08" stroke="white" stroke-width="12.716" stroke-miterlimit="10" stroke-linejoin="round"/>
<path d="M786.33 53.0498C813.2 79.6598 813.2 122.81 786.33 149.42C764.84 170.71 729.99 170.71 708.49 149.42C691.29 132.39 691.29 104.77 708.49 87.7397C722.25 74.1097 744.55 74.1097 758.31 87.7397C769.32 98.6397 769.32 116.31 758.31 127.21C749.51 135.93 735.23 135.93 726.43 127.21C719.39 120.23 719.39 108.92 726.43 101.95" stroke="white" stroke-width="12.716" stroke-miterlimit="10" stroke-linecap="round" stroke-linejoin="round"/>
<path d="M696.3 126.37C692.34 102.91 669.93 87.0799 646.25 91.0099C627.31 94.1499 614.52 111.91 617.69 130.67C620.23 145.68 634.57 155.81 649.73 153.3C661.85 151.29 670.04 139.93 668.01 127.92C666.39 118.31 657.21 111.83 647.51 113.44" stroke="white" stroke-width="12.716" stroke-miterlimit="10" stroke-linecap="round" stroke-linejoin="round"/>
<path d="M701.85 80.6697C699.9 70.3397 692.51 62.3398 683.16 59.0698C675.63 65.4498 671.64 75.5497 673.59 85.8997C675.55 96.2697 682.95 104.26 692.31 107.51C699.83 101.13 703.8 91.0297 701.85 80.6697Z" stroke="white" stroke-width="12.716" stroke-miterlimit="10" stroke-linecap="round" stroke-linejoin="round"/>
<path d="M837.68 125.66C833.96 111.52 825.12 100.58 815.07 96.1104C808.49 104.84 806.14 118.67 809.86 132.84C813.59 147.04 822.46 157.97 832.5 162.42C839.07 153.65 841.4 139.83 837.68 125.66Z" stroke="white" stroke-width="12.716" stroke-miterlimit="10" stroke-linecap="round" stroke-linejoin="round"/>
<path d="M1001.42 131.8C1028.29 105.19 1028.29 62.0399 1001.42 35.4299C979.93 14.1399 945.08 14.1399 923.58 35.4299C906.38 52.4599 906.38 80.0801 923.58 97.1101C937.34 110.74 959.64 110.74 973.4 97.1101C984.41 86.2101 984.41 68.5399 973.4 57.6399C964.6 48.9199 950.32 48.9199 941.52 57.6399C934.48 64.6199 934.48 75.9299 941.52 82.8999" stroke="white" stroke-width="12.716" stroke-miterlimit="10" stroke-linecap="round" stroke-linejoin="round"/>
<path d="M911.39 58.4797C907.43 81.9397 885.02 97.7698 861.34 93.8398C842.4 90.6998 829.61 72.9396 832.78 54.1796C835.32 39.1696 849.66 29.0398 864.82 31.5498C876.94 33.5598 885.13 44.9196 883.1 56.9296C881.48 66.5396 872.3 73.0196 862.6 71.4096" stroke="white" stroke-width="12.716" stroke-miterlimit="10" stroke-linecap="round" stroke-linejoin="round"/>
<path d="M916.94 104.18C914.99 114.51 907.6 122.51 898.25 125.78C890.72 119.4 886.73 109.3 888.68 98.9497C890.64 88.5797 898.04 80.5898 907.4 77.3398C914.92 83.7198 918.89 93.8197 916.94 104.18Z" stroke="white" stroke-width="12.716" stroke-miterlimit="10" stroke-linecap="round" stroke-linejoin="round"/>
<path d="M1052.77 59.1897C1049.05 73.3297 1040.21 84.2697 1030.16 88.7397C1023.58 80.0097 1021.23 66.1798 1024.95 52.0098C1028.68 37.8098 1037.55 26.8797 1047.59 22.4297C1054.16 31.1997 1056.49 45.0197 1052.77 59.1897Z" stroke="white" stroke-width="12.716" stroke-miterlimit="10" stroke-linecap="round" stroke-linejoin="round"/>
<path d="M928.92 160.08C1036.47 160.08 1036.47 24.7803 1144.01 24.7803H1144C1251.55 24.7803 1251.55 160.08 1359.09 160.08" stroke="white" stroke-width="12.716" stroke-miterlimit="10" stroke-linejoin="round"/>
<path d="M1216.51 53.0498C1243.38 79.6598 1243.38 122.81 1216.51 149.42C1195.02 170.71 1160.17 170.71 1138.67 149.42C1121.47 132.39 1121.47 104.77 1138.67 87.7397C1152.43 74.1097 1174.73 74.1097 1188.49 87.7397C1199.5 98.6397 1199.5 116.31 1188.49 127.21C1179.69 135.93 1165.41 135.93 1156.61 127.21C1149.57 120.23 1149.57 108.92 1156.61 101.95" stroke="white" stroke-width="12.716" stroke-miterlimit="10" stroke-linecap="round" stroke-linejoin="round"/>
<path d="M1126.47 126.37C1122.51 102.91 1100.1 87.0799 1076.42 91.0099C1057.48 94.1499 1044.69 111.91 1047.86 130.67C1050.4 145.68 1064.74 155.81 1079.9 153.3C1092.02 151.29 1100.21 139.93 1098.18 127.92C1096.56 118.31 1087.38 111.83 1077.68 113.44" stroke="white" stroke-width="12.716" stroke-miterlimit="10" stroke-linecap="round" stroke-linejoin="round"/>
<path d="M1132.02 80.6697C1130.07 70.3397 1122.68 62.3398 1113.33 59.0698C1105.8 65.4498 1101.81 75.5497 1103.76 85.8997C1105.72 96.2697 1113.12 104.26 1122.48 107.51C1130.01 101.13 1133.98 91.0297 1132.02 80.6697Z" stroke="white" stroke-width="12.716" stroke-miterlimit="10" stroke-linecap="round" stroke-linejoin="round"/>
</g>
</g>
<path d="M94.86 75.3801C79.94 73.8401 67.35 78.0803 57.26 88.5503C55.47 90.4103 55.47 93.3602 57.26 95.2202C67.35 105.69 79.94 109.93 94.86 108.39C91.52 121.01 93.9899 130.07 99.7199 137.14C100.63 138.27 102.41 138.09 103.09 136.8C116.93 110.47 152.49 98.1503 168.48 93.8103C170.45 93.2703 170.45 90.5102 168.48 89.9702C152.49 85.6302 116.93 73.3102 103.09 46.9802C102.42 45.7002 100.64 45.5101 99.7199 46.6401C93.9899 53.7001 91.52 62.7601 94.86 75.3801Z" fill="#618D82"/>
<path d="M1097.86 75.3801C1112.78 73.8401 1125.37 78.0803 1135.46 88.5503C1137.25 90.4103 1137.25 93.3602 1135.46 95.2202C1125.37 105.69 1112.78 109.93 1097.86 108.39C1101.2 121.01 1098.73 130.07 1093 137.14C1092.09 138.27 1090.31 138.09 1089.63 136.8C1075.79 110.47 1040.23 98.1503 1024.24 93.8103C1022.27 93.2703 1022.27 90.5102 1024.24 89.9702C1040.23 85.6302 1075.79 73.3102 1089.63 46.9802C1090.3 45.7002 1092.08 45.5101 1093 46.6401C1098.73 53.7001 1101.2 62.7601 1097.86 75.3801Z" fill="#618D82"/>
<path d="M265.24 65.7598H235.13C233.74 65.7598 232.68 66.1299 231.94 66.8499C231.2 67.5799 230.84 68.6298 230.84 70.0098V106.2C230.84 107.49 231.19 108.5 231.88 109.23C232.57 109.96 233.57 110.32 234.88 110.32C236.23 110.32 237.24 109.95 237.91 109.23C238.58 108.5 238.92 107.49 238.92 106.2V72.4397H261.45V106.2C261.45 107.49 261.8 108.5 262.49 109.23C263.18 109.96 264.18 110.32 265.49 110.32C266.79 110.32 267.79 109.95 268.49 109.23C269.18 108.5 269.53 107.49 269.53 106.2V70.0098C269.53 68.6298 269.16 67.5799 268.43 66.8499C267.69 66.1299 266.63 65.7598 265.24 65.7598Z" fill="white"/>
<path d="M310.43 67.9197C307.23 66.0697 303.47 65.1396 299.13 65.1396C295.89 65.1396 292.96 65.6697 290.33 66.7297C287.7 67.7897 285.45 69.3098 283.58 71.2898C281.71 73.2698 280.27 75.6497 279.26 78.4197C278.25 81.1897 277.75 84.3098 277.75 87.7698C277.75 92.3498 278.63 96.3497 280.4 99.7397C282.17 103.14 284.66 105.77 287.88 107.65C291.1 109.53 294.85 110.46 299.15 110.46C302.39 110.46 305.32 109.93 307.95 108.87C310.58 107.81 312.83 106.28 314.7 104.28C316.57 102.28 318.01 99.8798 319.02 97.0898C320.03 94.2998 320.53 91.1697 320.53 87.7097C320.53 83.1297 319.65 79.1498 317.88 75.7698C316.11 72.3898 313.62 69.7797 310.43 67.9197ZM310.52 96.2698C309.49 98.6498 308.02 100.46 306.1 101.71C304.18 102.96 301.86 103.59 299.13 103.59C295.05 103.59 291.87 102.19 289.6 99.3997C287.33 96.6097 286.19 92.7298 286.19 87.7698C286.19 84.4398 286.7 81.5897 287.74 79.2397C288.77 76.8897 290.25 75.0899 292.19 73.8599C294.12 72.6299 296.44 72.0198 299.13 72.0198C303.25 72.0198 306.44 73.3997 308.69 76.1497C310.94 78.8997 312.07 82.7798 312.07 87.7798C312.07 91.0598 311.55 93.8898 310.52 96.2698Z" fill="white"/>
<path d="M356 87.0898C357.84 86.3898 359.36 85.3497 360.54 83.9597C362.1 82.1297 362.88 79.8797 362.88 77.2097C362.88 74.8297 362.3 72.7898 361.14 71.0798C359.98 69.3698 358.31 68.0596 356.12 67.1396C353.93 66.2196 351.28 65.7598 348.17 65.7598H333.02C331.63 65.7598 330.57 66.1299 329.83 66.8499C329.09 67.5799 328.73 68.6298 328.73 70.0098V105.58C328.73 106.96 329.1 108.01 329.83 108.74C330.57 109.47 331.63 109.83 333.02 109.83H348.86C353.61 109.83 357.33 108.76 360 106.61C362.67 104.46 364.01 101.43 364.01 97.5098C364.01 94.5098 363.15 92.0697 361.42 90.1997C360.05 88.7197 358.24 87.6798 356 87.0898ZM336.49 71.8298H346.78C349.56 71.8298 351.63 72.3597 353 73.4197C354.37 74.4797 355.05 76.0596 355.05 78.1396C355.05 80.2196 354.37 81.7999 353 82.8599C351.63 83.9199 349.56 84.4497 346.78 84.4497H336.49V71.8298ZM354.16 102.11C352.81 103.21 350.71 103.77 347.85 103.77H336.49V90.5198H347.85C350.71 90.5198 352.81 91.0596 354.16 92.1396C355.51 93.2196 356.18 94.8896 356.18 97.1396C356.18 99.3496 355.51 101.01 354.16 102.11Z" fill="white"/>
<path d="M402.64 65.7598H369.95C368.86 65.7598 368 66.0399 367.39 66.5999C366.78 67.1599 366.47 67.9898 366.47 69.0698C366.47 70.1098 366.77 70.9398 367.39 71.5398C368 72.1398 368.85 72.4497 369.95 72.4497H382.26V106.21C382.26 107.5 382.61 108.51 383.3 109.24C383.99 109.97 384.99 110.33 386.3 110.33C387.65 110.33 388.66 109.96 389.33 109.24C390 108.51 390.34 107.5 390.34 106.21V72.4497H402.65C403.74 72.4497 404.6 72.1498 405.21 71.5398C405.82 70.9398 406.13 70.1098 406.13 69.0698C406.13 67.9898 405.82 67.1599 405.21 66.5999C404.58 66.0399 403.73 65.7598 402.64 65.7598Z" fill="white"/>
<path d="M439.56 67.9197C436.36 66.0697 432.6 65.1396 428.26 65.1396C425.02 65.1396 422.09 65.6697 419.46 66.7297C416.83 67.7897 414.58 69.3098 412.71 71.2898C410.84 73.2698 409.4 75.6497 408.39 78.4197C407.38 81.1897 406.88 84.3098 406.88 87.7698C406.88 92.3498 407.76 96.3497 409.53 99.7397C411.3 103.14 413.79 105.77 417.01 107.65C420.23 109.53 423.98 110.46 428.28 110.46C431.52 110.46 434.45 109.93 437.08 108.87C439.71 107.81 441.96 106.28 443.83 104.28C445.7 102.28 447.14 99.8798 448.15 97.0898C449.16 94.2998 449.66 91.1697 449.66 87.7097C449.66 83.1297 448.78 79.1498 447.01 75.7698C445.24 72.3898 442.75 69.7797 439.56 67.9197ZM439.65 96.2698C438.62 98.6498 437.15 100.46 435.23 101.71C433.31 102.96 430.99 103.59 428.26 103.59C424.18 103.59 421 102.19 418.73 99.3997C416.46 96.6097 415.32 92.7298 415.32 87.7698C415.32 84.4398 415.83 81.5897 416.87 79.2397C417.9 76.8897 419.38 75.0899 421.32 73.8599C423.25 72.6299 425.57 72.0198 428.26 72.0198C432.38 72.0198 435.57 73.3997 437.82 76.1497C440.07 78.8997 441.2 82.7798 441.2 87.7798C441.2 91.0598 440.68 93.8898 439.65 96.2698Z" fill="white"/>
<path d="M477.17 65.7598H461.96C460.66 65.7598 459.65 66.0998 458.93 66.7898C458.21 67.4798 457.86 68.4898 457.86 69.8198V106.2C457.86 107.49 458.21 108.5 458.9 109.23C459.59 109.96 460.59 110.32 461.9 110.32C463.25 110.32 464.26 109.95 464.93 109.23C465.6 108.5 465.94 107.49 465.94 106.2V93.3198H477.17C482.05 93.3198 485.82 92.0997 488.47 89.6597C491.12 87.2197 492.45 83.8398 492.45 79.4998C492.45 75.1698 491.12 71.7899 488.47 69.3699C485.82 66.9699 482.05 65.7598 477.17 65.7598ZM482.41 85.1099C480.94 86.3799 478.77 87.0198 475.91 87.0198H465.94V72.0798H475.91C478.77 72.0798 480.94 72.7097 482.41 73.9597C483.88 75.2097 484.62 77.0598 484.62 79.5198C484.62 81.9798 483.88 83.8399 482.41 85.1099Z" fill="white"/>
<path d="M534.95 65.6997C534.47 65.4097 533.89 65.2598 533.21 65.2598C532.24 65.2598 531.46 65.4398 530.88 65.7898C530.29 66.1398 529.68 66.7398 529.05 67.5698L506.52 96.7598V69.0698C506.52 67.8598 506.2 66.9198 505.57 66.2598C504.94 65.5898 504.01 65.2598 502.79 65.2598C501.57 65.2598 500.63 65.5898 499.98 66.2598C499.33 66.9298 499 67.8598 499 69.0698V106.26C499 106.93 499.07 107.51 499.22 108.01C499.37 108.51 499.59 108.94 499.88 109.29C500.17 109.64 500.53 109.9 500.95 110.07C501.37 110.24 501.85 110.32 502.4 110.32C503.37 110.32 504.11 110.13 504.64 109.76C505.17 109.38 505.76 108.78 506.44 107.95L528.97 78.6897V106.45C528.97 107.7 529.3 108.66 529.95 109.33C530.6 110 531.54 110.33 532.76 110.33C533.98 110.33 534.91 110 535.54 109.33C536.17 108.66 536.49 107.7 536.49 106.45V68.9397C536.49 68.1897 536.35 67.5297 536.08 66.9697C535.81 66.4197 535.43 65.9897 534.95 65.6997Z" fill="white"/>
<path d="M577.33 65.7598H544.64C543.55 65.7598 542.69 66.0399 542.08 66.5999C541.47 67.1599 541.16 67.9898 541.16 69.0698C541.16 70.1098 541.46 70.9398 542.08 71.5398C542.69 72.1398 543.54 72.4497 544.64 72.4497H556.95V106.21C556.95 107.5 557.3 108.51 557.99 109.24C558.68 109.97 559.68 110.33 560.99 110.33C562.34 110.33 563.35 109.96 564.02 109.24C564.69 108.51 565.03 107.5 565.03 106.21V72.4497H577.34C578.43 72.4497 579.29 72.1498 579.9 71.5398C580.51 70.9398 580.82 70.1098 580.82 69.0698C580.82 67.9898 580.51 67.1599 579.9 66.5999C579.28 66.0399 578.43 65.7598 577.33 65.7598Z" fill="white"/>
<path d="M613.68 85.6096C611.41 84.6296 608.69 84.1394 605.54 84.1394H593.49V69.3894C593.49 68.0594 593.14 67.0396 592.45 66.3296C591.76 65.6196 590.76 65.2695 589.45 65.2695C588.15 65.2695 587.15 65.6196 586.45 66.3296C585.76 67.0396 585.41 68.0594 585.41 69.3894V105.58C585.41 106.96 585.78 108.01 586.51 108.74C587.25 109.47 588.31 109.83 589.7 109.83H605.54C610.29 109.83 614.01 108.73 616.68 106.52C619.35 104.31 620.69 101.119 620.69 96.9595C620.69 94.1695 620.09 91.8194 618.89 89.9294C617.69 88.0294 615.96 86.5896 613.68 85.6096ZM610.85 101.86C609.5 102.92 607.4 103.449 604.54 103.449H593.5V90.5095H604.54C607.4 90.5095 609.5 91.0296 610.85 92.0696C612.2 93.1096 612.87 94.7395 612.87 96.9495C612.86 99.1695 612.19 100.8 610.85 101.86Z" fill="white"/>
<path d="M679.39 65.7598H649.28C647.89 65.7598 646.83 66.1299 646.09 66.8499C645.35 67.5799 644.99 68.6298 644.99 70.0098V106.2C644.99 107.49 645.34 108.5 646.03 109.23C646.72 109.96 647.72 110.32 649.03 110.32C650.38 110.32 651.39 109.95 652.06 109.23C652.73 108.5 653.07 107.49 653.07 106.2V72.4397H675.6V106.2C675.6 107.49 675.95 108.5 676.64 109.23C677.33 109.96 678.33 110.32 679.64 110.32C680.94 110.32 681.94 109.95 682.64 109.23C683.33 108.5 683.68 107.49 683.68 106.2V70.0098C683.68 68.6298 683.31 67.5799 682.58 66.8499C681.84 66.1299 680.77 65.7598 679.39 65.7598Z" fill="white"/>
<path d="M724.58 67.9197C721.38 66.0697 717.62 65.1396 713.28 65.1396C710.04 65.1396 707.11 65.6697 704.48 66.7297C701.85 67.7897 699.6 69.3098 697.73 71.2898C695.86 73.2698 694.42 75.6497 693.41 78.4197C692.4 81.1897 691.9 84.3098 691.9 87.7698C691.9 92.3498 692.78 96.3497 694.55 99.7397C696.32 103.14 698.81 105.77 702.03 107.65C705.25 109.53 709 110.46 713.3 110.46C716.54 110.46 719.47 109.93 722.1 108.87C724.73 107.81 726.98 106.28 728.85 104.28C730.72 102.28 732.16 99.8798 733.17 97.0898C734.18 94.2998 734.68 91.1697 734.68 87.7097C734.68 83.1297 733.8 79.1498 732.03 75.7698C730.26 72.3898 727.77 69.7797 724.58 67.9197ZM724.67 96.2698C723.64 98.6498 722.17 100.46 720.25 101.71C718.33 102.96 716.01 103.59 713.28 103.59C709.2 103.59 706.02 102.19 703.75 99.3997C701.48 96.6097 700.34 92.7298 700.34 87.7698C700.34 84.4398 700.85 81.5897 701.89 79.2397C702.92 76.8897 704.4 75.0899 706.34 73.8599C708.27 72.6299 710.59 72.0198 713.28 72.0198C717.4 72.0198 720.59 73.3997 722.84 76.1497C725.09 78.8997 726.22 82.7798 726.22 87.7798C726.22 91.0598 725.7 93.8898 724.67 96.2698Z" fill="white"/>
<path d="M777.27 65.7598H747.16C745.77 65.7598 744.71 66.1299 743.97 66.8499C743.23 67.5799 742.87 68.6298 742.87 70.0098V106.2C742.87 107.49 743.22 108.5 743.91 109.23C744.6 109.96 745.6 110.32 746.91 110.32C748.26 110.32 749.27 109.95 749.94 109.23C750.61 108.5 750.95 107.49 750.95 106.2V72.4397H773.48V106.2C773.48 107.49 773.83 108.5 774.52 109.23C775.21 109.96 776.21 110.32 777.52 110.32C778.82 110.32 779.82 109.95 780.52 109.23C781.21 108.5 781.56 107.49 781.56 106.2V70.0098C781.56 68.6298 781.19 67.5799 780.46 66.8499C779.72 66.1299 778.66 65.7598 777.27 65.7598Z" fill="white"/>
<path d="M834.33 65.2598C833.03 65.2598 832.03 65.6098 831.33 66.3198C830.64 67.0298 830.29 68.0496 830.29 69.3796V106.2C830.29 107.49 830.64 108.5 831.33 109.23C832.02 109.96 833.02 110.32 834.33 110.32C835.68 110.32 836.69 109.95 837.36 109.23C838.03 108.5 838.37 107.49 838.37 106.2V69.3796C838.37 68.0496 838.02 67.0298 837.33 66.3198C836.63 65.6198 835.63 65.2598 834.33 65.2598Z" fill="white"/>
<path d="M817.6 85.6096C815.33 84.6296 812.61 84.1394 809.46 84.1394H799.3V69.3894C799.3 68.0594 798.95 67.0396 798.26 66.3296C797.57 65.6196 796.57 65.2695 795.26 65.2695C793.96 65.2695 792.96 65.6196 792.26 66.3296C791.57 67.0396 791.22 68.0594 791.22 69.3894V105.58C791.22 106.96 791.59 108.01 792.32 108.74C793.06 109.47 794.12 109.83 795.51 109.83H809.46C814.21 109.83 817.93 108.73 820.6 106.52C823.27 104.31 824.61 101.119 824.61 96.9595C824.61 94.1695 824.01 91.8194 822.81 89.9294C821.61 88.0294 819.88 86.5896 817.6 85.6096ZM814.76 101.86C813.41 102.92 811.31 103.449 808.45 103.449H799.3V90.5095H808.45C811.31 90.5095 813.41 91.0296 814.76 92.0696C816.11 93.1096 816.78 94.7395 816.78 96.9495C816.78 99.1695 816.11 100.8 814.76 101.86Z" fill="white"/>
<path d="M879.2 65.7598H846.51C845.42 65.7598 844.56 66.0399 843.95 66.5999C843.34 67.1599 843.03 67.9898 843.03 69.0698C843.03 70.1098 843.33 70.9398 843.95 71.5398C844.56 72.1398 845.41 72.4497 846.51 72.4497H858.82V106.21C858.82 107.5 859.17 108.51 859.86 109.24C860.55 109.97 861.55 110.33 862.86 110.33C864.21 110.33 865.22 109.96 865.89 109.24C866.56 108.51 866.9 107.5 866.9 106.21V72.4497H879.21C880.3 72.4497 881.16 72.1498 881.77 71.5398C882.38 70.9398 882.69 70.1098 882.69 69.0698C882.69 67.9898 882.38 67.1599 881.77 66.5999C881.15 66.0399 880.3 65.7598 879.2 65.7598Z" fill="white"/>
<path d="M917.07 94.1394C915.72 91.3894 914.1 89.2395 912.21 87.6995C911.31 86.9695 910.3 86.3694 909.21 85.8894L919.03 71.0095C919.62 70.0895 919.88 69.2395 919.82 68.4495C919.76 67.6595 919.45 66.9895 918.9 66.4495C918.35 65.9095 917.7 65.5494 916.94 65.3894C916.18 65.2194 915.41 65.2896 914.64 65.5796C913.86 65.8696 913.18 66.4596 912.59 67.3296L901.66 84.4595H895.36V69.3296C895.36 67.9996 895.01 66.9896 894.32 66.2996C893.63 65.6096 892.63 65.2695 891.32 65.2695C890.02 65.2695 889.02 65.6096 888.32 66.2996C887.62 66.9896 887.28 67.9996 887.28 69.3296V106.209C887.28 107.499 887.63 108.51 888.32 109.24C889.01 109.97 890.01 110.33 891.32 110.33C892.67 110.33 893.68 109.96 894.35 109.24C895.02 108.51 895.36 107.499 895.36 106.209V91.1394H901.17C903.27 91.1394 905.03 91.5995 906.44 92.5195C907.85 93.4395 909.06 94.9794 910.07 97.1494L915.06 107.78C915.52 108.74 916.14 109.42 916.92 109.81C917.7 110.21 918.5 110.36 919.32 110.28C920.14 110.2 920.88 109.909 921.53 109.439C922.18 108.959 922.6 108.299 922.79 107.469C922.98 106.639 922.8 105.699 922.25 104.659L917.07 94.1394Z" fill="white"/>
<path d="M965.6 67.8599C965.43 67.0499 965.02 66.4097 964.37 65.9497C963.72 65.4897 962.91 65.2598 961.94 65.2598C960.8 65.2598 959.95 65.5496 959.38 66.1396C958.81 66.7196 958.32 67.4097 957.9 68.1997L947.14 89.1697L934.23 68.1396C933.68 67.2196 933.13 66.5098 932.56 66.0098C931.99 65.5098 931.18 65.2598 930.13 65.2598C929.12 65.2598 928.28 65.5098 927.61 66.0098C926.94 66.5098 926.55 67.1697 926.44 67.9797C926.33 68.7897 926.56 69.6598 927.1 70.5698L943.31 96.4998L938.97 104.88C938.42 105.92 938.22 106.85 938.37 107.66C938.52 108.47 938.93 109.12 939.6 109.6C940.27 110.08 941.07 110.32 942 110.32C943.14 110.32 944.01 110.02 944.62 109.41C945.23 108.81 945.72 108.13 946.1 107.38L964.97 70.6897C965.56 69.6197 965.77 68.6699 965.6 67.8599Z" fill="white"/>
</svg>
