<svg width="54" height="45" viewBox="0 0 54 45" fill="none" xmlns="http://www.w3.org/2000/svg">
<path d="M35.2801 30.1394C42.2401 30.8694 48.12 28.8694 52.83 23.9194C53.67 23.0394 53.67 21.6495 52.83 20.7695C48.12 15.8295 42.2501 13.8195 35.2801 14.5495C36.8401 8.58953 35.6901 4.30945 33.0101 0.96945C32.5801 0.43945 31.75 0.519362 31.44 1.12936C24.98 13.5694 8.39011 19.3794 0.930112 21.4394C0.0101123 21.6894 0.0101123 22.9995 0.930112 23.2495C8.39011 25.2995 24.99 31.1195 31.44 43.5595C31.75 44.1695 32.5801 44.2494 33.0101 43.7194C35.6901 40.3794 36.8401 36.0994 35.2801 30.1394Z" fill="#618D82"/>
</svg>
