<svg width="54" height="45" viewBox="0 0 54 45" fill="none" xmlns="http://www.w3.org/2000/svg">
<path d="M18.2501 14.5598C11.2901 13.8298 5.41007 15.8298 0.700068 20.7798C-0.139932 21.6598 -0.139932 23.0497 0.700068 23.9297C5.41007 28.8697 11.2801 30.8796 18.2501 30.1496C16.6901 36.1096 17.8401 40.3897 20.5201 43.7297C20.9501 44.2597 21.7801 44.1798 22.0901 43.5698C28.5501 31.1298 45.14 25.3197 52.6 23.2597C53.52 23.0097 53.52 21.6997 52.6 21.4497C45.14 19.3997 28.5401 13.5796 22.0901 1.13962C21.7801 0.529616 20.9501 0.449704 20.5201 0.979704C17.8401 4.3197 16.6901 8.59978 18.2501 14.5598Z" fill="#618D82"/>
</svg>
